<svg id='Anatomical_Heart_24' width='24' height='24' viewBox='0 0 24 24' xmlns='http://www.w3.org/2000/svg' xmlns:xlink='http://www.w3.org/1999/xlink'><rect width='24' height='24' stroke='none' fill='#000000' opacity='0'/>


<g transform="matrix(0.42 0 0 0.42 12 12)" >
<g style="" >
<g transform="matrix(1 0 0 1 -0.38 4.48)" >
<radialGradient id="SVGID_JLrRUe6gA10vzcIAvuWcMa_1" gradientUnits="userSpaceOnUse" gradientTransform="matrix(0.81 0.58 -0.42 0.58 17.05 -6.3)" cx="30.352" cy="27.228" r="31.276" fx="29.055" fy="27.209">
<stop offset="0%" style="stop-color:rgb(255,130,140);stop-opacity: 1"/>
<stop offset="71.6%" style="stop-color:rgb(125,0,10);stop-opacity: 1"/>
<stop offset="98.9%" style="stop-color:rgb(33,0,3);stop-opacity: 1"/>
</radialGradient>
<path style="stroke: none; stroke-width: 1; stroke-dasharray: none; stroke-linecap: butt; stroke-dashoffset: 0; stroke-linejoin: miter; stroke-miterlimit: 4; fill: url(#SVGID_JLrRUe6gA10vzcIAvuWcMa_1); fill-rule: nonzero; opacity: 1;" transform=" translate(-23.62, -28.48)" d="M 34.573 46 C 32.86 46 27.239 45.216 21.497 42.731 C 14.126 39.558 6.526999999999999 33.623000000000005 6.526999999999999 23.008000000000003 C 6.526999999999999 19.015000000000004 11.376 10.969000000000003 18.915999999999997 10.969000000000003 C 24.586 10.969000000000003 33.355999999999995 13.201000000000004 37.830999999999996 21.802000000000003 C 39.315 24.649000000000004 40.327999999999996 28.195000000000004 40.605999999999995 32.586000000000006 C 41.292 43.491 38.494 46 34.573 46 z" stroke-linecap="round" />
</g>
<g transform="matrix(1 0 0 1 -0.38 4.48)" >
<radialGradient id="SVGID_JLrRUe6gA10vzcIAvuWcMb_2" gradientUnits="userSpaceOnUse" gradientTransform="matrix(0.83 0.56 -0.5 0.75 21.02 -9.29)" cx="30.729" cy="31.299" r="43.682" fx="30.729" fy="31.299">
<stop offset="0%" style="stop-color:rgb(125,0,10);stop-opacity: 0"/>
<stop offset="28.299999999999997%" style="stop-color:rgb(123,0,10);stop-opacity: 0.565"/>
<stop offset="38.5%" style="stop-color:rgb(116,0,9);stop-opacity: 0.769"/>
<stop offset="45.7%" style="stop-color:rgb(105,0,9);stop-opacity: 0.914"/>
<stop offset="50%" style="stop-color:rgb(93,0,8);stop-opacity: 1"/>
</radialGradient>
<path style="stroke: none; stroke-width: 1; stroke-dasharray: none; stroke-linecap: butt; stroke-dashoffset: 0; stroke-linejoin: miter; stroke-miterlimit: 4; fill: url(#SVGID_JLrRUe6gA10vzcIAvuWcMb_2); fill-rule: nonzero; opacity: 1;" transform=" translate(-23.62, -28.48)" d="M 34.573 46 C 32.86 46 27.239 45.216 21.497 42.731 C 14.126 39.558 6.526999999999999 33.623000000000005 6.526999999999999 23.008000000000003 C 6.526999999999999 19.015000000000004 11.376 10.969000000000003 18.915999999999997 10.969000000000003 C 24.586 10.969000000000003 33.355999999999995 13.201000000000004 37.830999999999996 21.802000000000003 C 39.315 24.649000000000004 40.327999999999996 28.195000000000004 40.605999999999995 32.586000000000006 C 41.292 43.491 38.494 46 34.573 46 z" stroke-linecap="round" />
</g>
<g transform="matrix(1 0 0 1 6.94 8.71)" >
<radialGradient id="SVGID_JLrRUe6gA10vzcIAvuWcMc_3" gradientUnits="userSpaceOnUse" gradientTransform="matrix(0.71 0.7 -0.53 0.54 25.97 -11.2)" cx="35.235" cy="29.467" r="39.524" fx="34.453" fy="29.413">
<stop offset="0%" style="stop-color:rgb(125,0,10);stop-opacity: 0"/>
<stop offset="29.2%" style="stop-color:rgb(123,0,10);stop-opacity: 0.468"/>
<stop offset="44.9%" style="stop-color:rgb(115,0,9);stop-opacity: 0.719"/>
<stop offset="57.3%" style="stop-color:rgb(101,0,9);stop-opacity: 0.917"/>
<stop offset="62.4%" style="stop-color:rgb(93,0,8);stop-opacity: 1"/>
</radialGradient>
<path style="stroke: none; stroke-width: 1; stroke-dasharray: none; stroke-linecap: butt; stroke-dashoffset: 0; stroke-linejoin: miter; stroke-miterlimit: 4; fill: url(#SVGID_JLrRUe6gA10vzcIAvuWcMc_3); fill-rule: nonzero; opacity: 1;" transform=" translate(-30.94, -32.71)" d="M 34.573 46 C 32.86 46 27.239 45.216 21.497 42.731 C 21.316 42.14 21.232 41.513000000000005 21.195 40.909 C 20.966 36.542 23.089 32.429 25.164 28.581 C 26.310000000000002 26.445999999999998 27.456000000000003 24.311 28.602 22.175 C 29.085 21.27 29.615000000000002 20.317 30.508 19.811 C 31.666 19.16 33.114 19.413 34.356 19.883 C 35.611000000000004 20.340999999999998 36.769 21.005 37.83 21.801 C 39.314 24.648 40.327 28.194 40.605 32.585 C 41.292 43.491 38.494 46 34.573 46 z" stroke-linecap="round" />
</g>
<g transform="matrix(1 0 0 1 -4.48 1.62)" >
<path style="stroke: none; stroke-width: 1; stroke-dasharray: none; stroke-linecap: butt; stroke-dashoffset: 0; stroke-linejoin: miter; stroke-miterlimit: 4; fill: rgb(93,0,8); fill-rule: nonzero; opacity: 1;" transform=" translate(-19.52, -25.62)" d="M 13.567 15.774 C 13.56 16.776999999999997 13.956 17.777 14.624 18.538 C 14.961 18.914 15.357000000000001 19.242 15.807 19.47 C 16.251 19.705 16.756 19.837999999999997 17.271 19.974999999999998 C 18.313000000000002 20.205 19.387 20.685999999999996 20.182000000000002 21.453999999999997 C 20.992 22.205999999999996 21.581000000000003 23.191999999999997 21.852000000000004 24.263999999999996 C 22.131000000000004 25.335999999999995 21.913000000000004 26.495999999999995 22.750000000000004 27.149999999999995 C 23.123000000000005 27.494999999999994 23.603000000000005 27.739999999999995 24.018000000000004 28.124999999999996 C 24.428000000000004 28.502999999999997 24.752000000000002 28.952999999999996 25.026000000000003 29.424999999999997 C 25.563000000000002 30.374999999999996 25.890000000000004 31.441999999999997 25.957000000000004 32.532999999999994 C 26.027000000000005 33.62199999999999 25.774000000000004 34.74999999999999 25.150000000000006 35.666999999999994 C 25.107000000000006 35.73 25.022000000000006 35.745999999999995 24.959000000000007 35.702999999999996 C 24.896000000000008 35.66 24.881000000000007 35.57299999999999 24.924000000000007 35.51 C 26.107000000000006 33.754 25.766000000000005 31.36 24.749000000000006 29.584999999999997 C 24.485000000000007 29.137999999999998 24.174000000000007 28.714999999999996 23.797000000000004 28.371 C 23.428000000000004 28.026999999999997 22.939000000000004 27.782999999999998 22.520000000000003 27.407 C 22.077 27.048000000000002 21.805000000000003 26.464 21.733000000000004 25.921 C 21.644000000000005 25.372 21.627000000000002 24.851 21.489000000000004 24.355999999999998 C 20.971000000000004 22.337999999999997 19.231000000000005 20.759999999999998 17.164000000000005 20.397999999999996 C 16.649000000000004 20.264999999999997 16.109000000000005 20.132999999999996 15.604000000000005 19.872999999999998 C 15.099000000000004 19.621999999999996 14.654000000000005 19.261999999999997 14.277000000000005 18.848 C 13.530000000000005 18.012 13.074000000000005 16.909 13.071000000000005 15.77 C 13.071000000000005 15.632 13.182000000000006 15.52 13.320000000000006 15.519 C 13.458000000000006 15.518 13.570000000000006 15.63 13.571000000000005 15.768 L 13.567 15.774 z" stroke-linecap="round" />
</g>
<g transform="matrix(1 0 0 1 -13.82 -12.32)" >
<linearGradient id="SVGID_JLrRUe6gA10vzcIAvuWcMd_4" gradientUnits="userSpaceOnUse" gradientTransform="matrix(0.86 -0.51 0.51 0.86 -4.84 9.69)" x1="6.401" y1="9.463" x2="17.283" y2="9.463">
<stop offset="0%" style="stop-color:rgb(0,26,46);stop-opacity: 1"/>
<stop offset="25.1%" style="stop-color:rgb(0,69,125);stop-opacity: 1"/>
<stop offset="50.3%" style="stop-color:rgb(130,199,255);stop-opacity: 1"/>
<stop offset="74.3%" style="stop-color:rgb(0,69,125);stop-opacity: 1"/>
<stop offset="98.9%" style="stop-color:rgb(0,19,33);stop-opacity: 1"/>
</linearGradient>
<path style="stroke: none; stroke-width: 1; stroke-dasharray: none; stroke-linecap: butt; stroke-dashoffset: 0; stroke-linejoin: miter; stroke-miterlimit: 4; fill: url(#SVGID_JLrRUe6gA10vzcIAvuWcMd_4); fill-rule: nonzero; opacity: 1;" transform=" translate(-10.18, -11.68)" d="M 14.3 16.235 C 13.723 16.739 13.074000000000002 17.125 12.349 17.386 C 11.290000000000001 17.766 10.108 17.287 9.532 16.320999999999998 L 5.465 9.506 C 5.244 9.13 5.221 8.651 5.462 8.287 C 6.261 7.0760000000000005 8.183 5.9510000000000005 9.617999999999999 5.853000000000001 C 10.050999999999998 5.824000000000001 10.453 6.079000000000001 10.671999999999999 6.453 L 14.718 13.234 C 15.3 14.209 15.153 15.489 14.3 16.235 z" stroke-linecap="round" />
</g>
<g transform="matrix(1 0 0 1 -4.89 0.18)" >
<path style="stroke: none; stroke-width: 1; stroke-dasharray: none; stroke-linecap: butt; stroke-dashoffset: 0; stroke-linejoin: miter; stroke-miterlimit: 4; fill: rgb(93,0,8); fill-rule: nonzero; opacity: 1;" transform=" translate(-19.11, -24.18)" d="M 19.089 20.918 C 19.619999999999997 21.339 19.648999999999997 22.102999999999998 19.506 22.706 C 19.348 23.367 18.816 23.773 18.745 24.247 C 18.653000000000002 24.733999999999998 18.87 25.301 19.032 25.844 C 19.201 26.379 19.418 26.911 19.849 27.246000000000002 C 19.904 27.288000000000004 19.915 27.366000000000003 19.873 27.421000000000003 C 19.833000000000002 27.474000000000004 19.758000000000003 27.485000000000003 19.704 27.449 C 19.179000000000002 27.094 18.887 26.511000000000003 18.684 25.963 C 18.514 25.411 18.248 24.855 18.341 24.174 C 18.477 23.477999999999998 18.990000000000002 23.097 19.066000000000003 22.595 C 19.202 22.073999999999998 19.023000000000003 21.593 18.885 21.061 L 18.882 21.051 C 18.864 20.980999999999998 18.906000000000002 20.91 18.975 20.892999999999997 C 19.016 20.883 19.058 20.894 19.089 20.918 z" stroke-linecap="round" />
</g>
<g transform="matrix(1 0 0 1 0.46 1.97)" >
<path style="stroke: none; stroke-width: 1; stroke-dasharray: none; stroke-linecap: butt; stroke-dashoffset: 0; stroke-linejoin: miter; stroke-miterlimit: 4; fill: rgb(93,0,8); fill-rule: nonzero; opacity: 1;" transform=" translate(-24.46, -25.97)" d="M 21.754 24.485 L 24.909000000000002 25.389 C 25.428 25.551 25.974000000000004 25.649 26.493000000000002 25.938 C 26.998 26.212 27.434 26.814999999999998 27.254 27.45 L 27.014000000000003 27.38 C 27.134000000000004 26.915 26.784000000000002 26.423 26.343000000000004 26.208 C 25.893000000000004 25.973999999999997 25.342000000000002 25.886 24.815000000000005 25.744 L 21.630000000000006 24.953 L 21.754 24.485 z" stroke-linecap="round" />
</g>
<g transform="matrix(1 0 0 1 3 11.59)" >
<path style="stroke: rgb(93,0,8); stroke-width: 0.25; stroke-dasharray: none; stroke-linecap: round; stroke-dashoffset: 0; stroke-linejoin: round; stroke-miterlimit: 10; fill: none; fill-rule: nonzero; opacity: 1;" transform=" translate(-27, -35.59)" d="M 25.879 32.676 C 26.742 32.649 27.595000000000002 33.2 27.924 33.999 C 28.503 35.405 27.501 37.087 28.057 38.502" stroke-linecap="round" />
</g>
<g transform="matrix(1 0 0 1 -11 -0.97)" >
<path style="stroke: none; stroke-width: 1; stroke-dasharray: none; stroke-linecap: butt; stroke-dashoffset: 0; stroke-linejoin: miter; stroke-miterlimit: 4; fill: rgb(93,0,8); fill-rule: nonzero; opacity: 1;" transform=" translate(-13, -23.03)" d="M 12.766 18.306 C 12.117 18.753 11.877 19.693 12.046 20.507 C 12.206 21.35 12.689 22.117 13.177 22.873 C 13.665 23.628 14.177999999999999 24.439 14.36 25.37 C 14.551 26.287000000000003 14.477 27.254 14.142 28.123 C 14.116999999999999 28.187 14.045 28.220000000000002 13.979999999999999 28.195 C 13.916999999999998 28.171 13.884999999999998 28.099 13.906999999999998 28.036 C 14.204999999999998 27.206000000000003 14.251999999999999 26.291 14.053999999999998 25.437 C 13.864999999999998 24.576 13.37 23.826 12.862999999999998 23.080000000000002 C 12.358999999999998 22.333000000000002 11.821999999999997 21.544 11.615999999999998 20.595000000000002 C 11.407999999999998 19.666000000000004 11.619999999999997 18.538000000000004 12.476999999999999 17.898000000000003 C 12.588 17.815000000000005 12.745 17.838000000000005 12.826999999999998 17.949 C 12.909999999999998 18.060000000000002 12.886999999999999 18.217000000000002 12.775999999999998 18.299000000000003 C 12.774 18.3 12.768 18.305 12.766 18.306 z" stroke-linecap="round" />
</g>
<g transform="matrix(1 0 0 1 -8.38 5.49)" >
<path style="stroke: none; stroke-width: 1; stroke-dasharray: none; stroke-linecap: butt; stroke-dashoffset: 0; stroke-linejoin: miter; stroke-miterlimit: 4; fill: rgb(93,0,8); fill-rule: nonzero; opacity: 1;" transform=" translate(-15.62, -29.49)" d="M 14.203 26.354 C 14.540999999999999 26.322 14.831999999999999 26.514 15.077 26.706 C 15.324 26.906 15.531 27.144 15.703 27.402 C 16.05 27.921 16.233 28.516000000000002 16.355999999999998 29.096 C 16.602999999999998 30.257 16.618 31.44 17.148 32.452 C 17.181 32.513 17.158 32.589 17.097 32.620999999999995 C 17.039 32.651999999999994 16.966 32.63099999999999 16.931 32.57599999999999 C 16.292 31.521999999999995 16.242 30.281999999999993 15.991000000000001 29.176999999999992 C 15.863000000000001 28.62099999999999 15.681000000000001 28.07999999999999 15.367 27.629999999999992 C 15.211 27.40499999999999 15.026000000000002 27.20199999999999 14.815000000000001 27.037999999999993 C 14.602000000000002 26.86799999999999 14.367 26.78099999999999 14.14 26.595999999999993 L 14.133000000000001 26.589999999999993 C 14.076 26.543999999999993 14.067 26.459999999999994 14.114 26.40299999999999 C 14.135 26.374 14.169 26.357 14.203 26.354 z" stroke-linecap="round" />
</g>
<g transform="matrix(1 0 0 1 5.71 -0.91)" >
<radialGradient id="SVGID_JLrRUe6gA10vzcIAvuWcMe_5" gradientUnits="userSpaceOnUse" gradientTransform="matrix(0.74 0.8 -0.65 0.59 20.05 -12.6)" cx="30.146" cy="19.394" r="7.069" fx="30.146" fy="19.394">
<stop offset="0%" style="stop-color:rgb(255,255,255);stop-opacity: 0.6"/>
<stop offset="99.4%" style="stop-color:rgb(255,255,255);stop-opacity: 0"/>
</radialGradient>
<path style="stroke: none; stroke-width: 1; stroke-dasharray: none; stroke-linecap: butt; stroke-dashoffset: 0; stroke-linejoin: miter; stroke-miterlimit: 4; fill: url(#SVGID_JLrRUe6gA10vzcIAvuWcMe_5); fill-rule: nonzero; opacity: 0.6;" transform=" translate(-29.71, -23.09)" d="M 34.911 28.765 C 32.387 31.080000000000002 28.011000000000003 30.417 25.137 27.284 C 22.262999999999998 24.150999999999996 21.979 19.733999999999998 24.503 17.418 C 27.027 15.102 31.403 15.766 34.277 18.899 C 37.151 22.032000000000004 37.435 26.449 34.911 28.765 z" stroke-linecap="round" />
</g>
<g transform="matrix(1 0 0 1 1.28 -13.08)" >
<radialGradient id="SVGID_JLrRUe6gA10vzcIAvuWcMf_6" gradientUnits="userSpaceOnUse" gradientTransform="matrix(0.8 0.6 -0.45 0.61 12.86 -12.15)" cx="30.25" cy="15.125" r="9.638" fx="30.25" fy="15.125">
<stop offset="36.8%" style="stop-color:rgb(46,0,4);stop-opacity: 1"/>
<stop offset="57.599999999999994%" style="stop-color:rgb(119,0,10);stop-opacity: 1"/>
<stop offset="70.5%" style="stop-color:rgb(125,0,10);stop-opacity: 1"/>
<stop offset="72.6%" style="stop-color:rgb(166,41,51);stop-opacity: 1"/>
<stop offset="74.8%" style="stop-color:rgb(204,79,89);stop-opacity: 1"/>
<stop offset="76.8%" style="stop-color:rgb(232,107,117);stop-opacity: 1"/>
<stop offset="78.60000000000001%" style="stop-color:rgb(249,124,134);stop-opacity: 1"/>
<stop offset="80%" style="stop-color:rgb(255,130,140);stop-opacity: 1"/>
<stop offset="81.8%" style="stop-color:rgb(249,124,134);stop-opacity: 1"/>
<stop offset="84.3%" style="stop-color:rgb(232,107,117);stop-opacity: 1"/>
<stop offset="87%" style="stop-color:rgb(204,79,89);stop-opacity: 1"/>
<stop offset="90.10000000000001%" style="stop-color:rgb(165,40,50);stop-opacity: 1"/>
<stop offset="92.7%" style="stop-color:rgb(125,0,10);stop-opacity: 1"/>
<stop offset="100%" style="stop-color:rgb(33,0,3);stop-opacity: 1"/>
</radialGradient>
<path style="stroke: none; stroke-width: 1; stroke-dasharray: none; stroke-linecap: butt; stroke-dashoffset: 0; stroke-linejoin: miter; stroke-miterlimit: 4; fill: url(#SVGID_JLrRUe6gA10vzcIAvuWcMf_6); fill-rule: nonzero; opacity: 1;" transform=" translate(-25.28, -10.92)" d="M 21.319 11.683 C 21.706 10.875 22.111 10.322 22.625999999999998 9.712 C 23.136 9.129999999999999 23.740999999999996 8.591999999999999 24.467999999999996 8.190999999999999 C 25.193999999999996 7.785999999999999 26.071999999999996 7.587999999999999 26.884999999999998 7.637999999999999 C 27.717999999999996 7.658999999999999 28.427999999999997 7.989999999999999 29.069 8.315 C 29.413 8.488999999999999 29.55 8.908999999999999 29.375999999999998 9.253 C 29.230999999999998 9.540000000000001 28.915 9.683 28.615 9.622 L 28.505999999999997 9.6 C 27.956999999999997 9.488 27.420999999999996 9.394 26.963999999999995 9.524 C 26.505999999999997 9.629 26.120999999999995 9.835999999999999 25.791999999999994 10.158999999999999 C 25.463999999999995 10.485 25.185999999999993 10.896999999999998 24.959999999999994 11.357 C 24.744999999999994 11.795 24.535999999999994 12.375 24.477999999999994 12.766 C 24.340999999999994 13.693 23.477999999999994 14.333 22.550999999999995 14.196 C 21.623999999999995 14.059 20.983999999999995 13.196 21.120999999999995 12.269 C 21.145999999999994 12.099 21.195999999999994 11.939 21.264999999999993 11.791 L 21.319 11.683 z" stroke-linecap="round" />
</g>
<g transform="matrix(1 0 0 1 0.1 -15.12)" >
<radialGradient id="SVGID_JLrRUe6gA10vzcIAvuWcMg_7" gradientUnits="userSpaceOnUse" gradientTransform="matrix(-0.79 -0.61 0.46 -0.6 48.17 42.32)" cx="30.665" cy="14.757" r="16.523" fx="30.665" fy="14.757">
<stop offset="36.8%" style="stop-color:rgb(46,0,4);stop-opacity: 1"/>
<stop offset="57.599999999999994%" style="stop-color:rgb(119,0,10);stop-opacity: 1"/>
<stop offset="70.5%" style="stop-color:rgb(125,0,10);stop-opacity: 1"/>
<stop offset="72.6%" style="stop-color:rgb(166,41,51);stop-opacity: 1"/>
<stop offset="74.8%" style="stop-color:rgb(204,79,89);stop-opacity: 1"/>
<stop offset="76.8%" style="stop-color:rgb(232,107,117);stop-opacity: 1"/>
<stop offset="78.60000000000001%" style="stop-color:rgb(249,124,134);stop-opacity: 1"/>
<stop offset="80%" style="stop-color:rgb(255,130,140);stop-opacity: 1"/>
<stop offset="81.8%" style="stop-color:rgb(249,124,134);stop-opacity: 1"/>
<stop offset="84.3%" style="stop-color:rgb(232,107,117);stop-opacity: 1"/>
<stop offset="87%" style="stop-color:rgb(204,79,89);stop-opacity: 1"/>
<stop offset="90.10000000000001%" style="stop-color:rgb(165,40,50);stop-opacity: 1"/>
<stop offset="92.7%" style="stop-color:rgb(125,0,10);stop-opacity: 1"/>
<stop offset="100%" style="stop-color:rgb(33,0,3);stop-opacity: 1"/>
</radialGradient>
<path style="stroke: none; stroke-width: 1; stroke-dasharray: none; stroke-linecap: butt; stroke-dashoffset: 0; stroke-linejoin: miter; stroke-miterlimit: 4; fill: url(#SVGID_JLrRUe6gA10vzcIAvuWcMg_7); fill-rule: nonzero; opacity: 1;" transform=" translate(-24.1, -8.88)" d="M 15.231 13.345 C 15.33 11.694 15.41 9.726 16.177 7.6610000000000005 C 16.553 6.65 17.12 5.6290000000000004 17.865 4.761000000000001 C 18.598999999999997 3.898000000000001 19.465999999999998 3.197000000000001 20.397 2.660000000000001 C 22.244999999999997 1.576000000000001 24.429 1.132000000000001 26.441 1.2840000000000011 C 28.462999999999997 1.4270000000000012 30.340999999999998 2.0770000000000013 31.987 3.039000000000001 C 32.940999999999995 3.5970000000000013 33.263 4.823000000000001 32.705 5.777000000000001 C 32.183 6.670000000000001 31.075999999999997 7.009000000000001 30.153999999999996 6.591000000000001 L 30.110999999999997 6.5710000000000015 C 28.881999999999998 6.010000000000002 27.551 5.721000000000002 26.312999999999995 5.768000000000002 C 25.070999999999994 5.810000000000001 23.958999999999996 6.197000000000002 23.052999999999997 6.864000000000002 C 22.604999999999997 7.191000000000002 22.229999999999997 7.583000000000002 21.955 7.998000000000001 C 21.682 8.403 21.494 8.855 21.358999999999998 9.388000000000002 C 21.09 10.430000000000001 21.108999999999998 11.776000000000002 21.191999999999997 13.369000000000002 C 21.277999999999995 15.015 20.011999999999997 16.419 18.365999999999996 16.505000000000003 C 16.719999999999995 16.591 15.315999999999995 15.325000000000003 15.229999999999997 13.679000000000002 C 15.224 13.568 15.225 13.453 15.231 13.345 z" stroke-linecap="round" />
</g>
</g>
</g>
</svg>